<mxfile host="app.diagrams.net" modified="2022-12-02T13:13:05.857Z" agent="5.0 (Windows NT 10.0; Win64; x64) AppleWebKit/537.36 (KHTML, like Gecko) Chrome/108.0.0.0 Safari/537.36" etag="DDHhNfPjBPflPBHYEpX9" version="20.6.0" type="github">
  <diagram id="prtHgNgQTEPvFCAcTncT" name="Page-1">
    <mxGraphModel dx="865" dy="529" grid="1" gridSize="10" guides="1" tooltips="1" connect="1" arrows="1" fold="1" page="1" pageScale="1" pageWidth="827" pageHeight="1169" math="0" shadow="0">
      <root>
        <mxCell id="0" />
        <mxCell id="1" parent="0" />
        <mxCell id="t7mHXpypDHEVt24r--o4-1" value="" style="whiteSpace=wrap;html=1;aspect=fixed;" vertex="1" parent="1">
          <mxGeometry x="560" y="280" width="170" height="170" as="geometry" />
        </mxCell>
        <mxCell id="t7mHXpypDHEVt24r--o4-2" value="" style="rounded=0;whiteSpace=wrap;html=1;" vertex="1" parent="1">
          <mxGeometry x="520" y="360" width="60" height="25" as="geometry" />
        </mxCell>
        <mxCell id="t7mHXpypDHEVt24r--o4-3" value="" style="rounded=0;whiteSpace=wrap;html=1;" vertex="1" parent="1">
          <mxGeometry x="520" y="410" width="60" height="25" as="geometry" />
        </mxCell>
        <mxCell id="t7mHXpypDHEVt24r--o4-4" value="Server/Backend" style="swimlane;whiteSpace=wrap;html=1;" vertex="1" parent="1">
          <mxGeometry x="480" y="230" width="310" height="270" as="geometry" />
        </mxCell>
        <mxCell id="t7mHXpypDHEVt24r--o4-5" value="Webserver" style="text;html=1;strokeColor=none;fillColor=none;align=center;verticalAlign=middle;whiteSpace=wrap;rounded=0;" vertex="1" parent="t7mHXpypDHEVt24r--o4-4">
          <mxGeometry x="135" y="90" width="60" height="30" as="geometry" />
        </mxCell>
        <mxCell id="t7mHXpypDHEVt24r--o4-6" value="Vehicle" style="swimlane;whiteSpace=wrap;html=1;" vertex="1" parent="1">
          <mxGeometry x="80" y="230" width="320" height="400" as="geometry" />
        </mxCell>
        <mxCell id="t7mHXpypDHEVt24r--o4-7" value="" style="swimlane;startSize=0;" vertex="1" parent="t7mHXpypDHEVt24r--o4-6">
          <mxGeometry x="40" y="50" width="240" height="165" as="geometry" />
        </mxCell>
        <mxCell id="t7mHXpypDHEVt24r--o4-8" value="Control Unit" style="text;html=1;strokeColor=none;fillColor=none;align=center;verticalAlign=middle;whiteSpace=wrap;rounded=0;" vertex="1" parent="t7mHXpypDHEVt24r--o4-7">
          <mxGeometry x="50" y="20" width="60" height="30" as="geometry" />
        </mxCell>
        <mxCell id="t7mHXpypDHEVt24r--o4-11" value="" style="rounded=0;whiteSpace=wrap;html=1;" vertex="1" parent="t7mHXpypDHEVt24r--o4-6">
          <mxGeometry x="250" y="130" width="60" height="25" as="geometry" />
        </mxCell>
        <mxCell id="t7mHXpypDHEVt24r--o4-9" value="Sensors:&lt;br&gt;- air&lt;br&gt;- charge level" style="text;html=1;align=center;verticalAlign=middle;resizable=0;points=[];autosize=1;strokeColor=none;fillColor=none;" vertex="1" parent="1">
          <mxGeometry x="140" y="330" width="100" height="60" as="geometry" />
        </mxCell>
      </root>
    </mxGraphModel>
  </diagram>
</mxfile>
